# xmcd CD database file
#
# Track frame offsets:
#	150
#	24610
#	47180
#	77485
#	94495
#	117482
#	148222
#	165392
#	190822
#	213082
#	233895
#	266615
#	293857
#	316052
#
# Disc length: 4488 seconds
#
# Revision: 5
# Processed by: cddbd v1.5.1PL0 Copyright (c) Steve Scherf et al.
# Submitted via: CDex 1.51
#
DISCID=c611860e
DTITLE=Pride and Glory - Pride and Glory
DYEAR=1994
DGENRE=Rock
TTITLE0=Losin' your mind
TTITLE1=Horse called war
TTITLE2=Shine on
TTITLE3=Lovin' woman
TTITLE4=Harvester of pain
TTITLE5=The chosen one
TTITLE6=Sweet Jesus
TTITLE7=Troubled wine
TTITLE8=Machine gun man
TTITLE9=Cry me a river
TTITLE10=Toe'n the line
TTITLE11=Found a friend
TTITLE12=Fadin' away
TTITLE13=Hate your guts
EXTD=YEAR: 1994
EXTT0=
EXTT1=
EXTT2=
EXTT3=
EXTT4=
EXTT5=
EXTT6=
EXTT7=
EXTT8=
EXTT9=
EXTT10=
EXTT11=
EXTT12=
EXTT13=
PLAYORDER=
